<?xml version="1.0" encoding="UTF-8" standalone="no"?>
<!-- Uploaded to: SVG Repo, www.svgrepo.com, Generator: SVG Repo Mixer Tools -->

<svg
   width="800px"
   height="800px"
   viewBox="0 0 24 24"
   fill="none"
   version="1.1"
   id="svg1"
   sodipodi:docname="ColorGear.svg"
   inkscape:version="1.4.2 (f4327f4, 2025-05-13)"
   xmlns:inkscape="http://www.inkscape.org/namespaces/inkscape"
   xmlns:sodipodi="http://sodipodi.sourceforge.net/DTD/sodipodi-0.dtd"
   xmlns="http://www.w3.org/2000/svg"
   xmlns:svg="http://www.w3.org/2000/svg">
  <defs
     id="defs1" />
  <sodipodi:namedview
     id="namedview1"
     pagecolor="#ffffff"
     bordercolor="#000000"
     borderopacity="0.25"
     inkscape:showpageshadow="2"
     inkscape:pageopacity="0.0"
     inkscape:pagecheckerboard="0"
     inkscape:deskcolor="#d1d1d1"
     showgrid="false"
     inkscape:zoom="0.18"
     inkscape:cx="783.33333"
     inkscape:cy="1563.8889"
     inkscape:window-width="933"
     inkscape:window-height="1211"
     inkscape:window-x="4768"
     inkscape:window-y="105"
     inkscape:window-maximized="0"
     inkscape:current-layer="svg1" />
  <path
     d="M18.763 13.7944L20.029 16.0222C19.8786 16.3163 19.7105 16.6051 19.5244 16.8873C19.3383 17.1695 19.1391 17.4378 18.9281 17.6919L16.4377 17.4142C15.7715 17.9608 15.0027 18.3869 14.1645 18.6592L13.0002 20.945C12.6719 20.9813 12.3382 21 12.0002 21C11.6622 21 11.3285 20.9813 11.0002 20.945L9.83293 18.6582C8.99428 18.3854 8.22514 17.9585 7.5589 17.4111L5.05407 17.6915C4.84303 17.4374 4.64381 17.1691 4.45774 16.8869C4.27168 16.6047 4.10356 16.3159 3.95312 16.0218L5.22637 13.7814C5.07803 13.2142 5.00021 12.6139 5.00021 12.0002C5.00021 11.3749 5.08219 10.7688 5.23599 10.192L3.95351 7.936C4.10394 7.64191 4.27206 7.3531 4.45812 7.07091C4.64419 6.78873 4.84341 6.52043 5.05445 6.2663L7.60942 6.55327C8.26776 6.02075 9.01625 5.60683 9.84 5.33984M9.83614 5.33996L11 3.05493C11.3283 3.01863 11.662 3 12 3C12.338 3 12.6716 3.01863 13 3.05493L14.1638 5.33996C14.9882 5.60716 15.7389 6.01764 16.3976 6.55077L18.9275 6.26661C19.1385 6.52074 19.3377 6.78904 19.5238 7.07123C19.7098 7.35341 19.878 7.64223 20.0284 7.93632L18.7592 10.1697M18.7594 10.1732C18.9164 10.7556 19.0002 11.3681 19.0002 12.0002C19.0002 12.6215 18.9193 13.2239 18.7673 13.7974M15.0002 12.0002C15.0002 13.657 13.6571 15.0002 12.0002 15.0002C10.3433 15.0002 9.0002 13.657 9.0002 12.0002C9.0002 10.3433 10.3433 9.00015 12.0002 9.00015C13.6571 9.00015 15.0002 10.3433 15.0002 12.0002Z"
     stroke="#000000"
     stroke-width="2"
     stroke-linecap="round"
     stroke-linejoin="round"
     id="path1" />
  <path
     style="fill:#ff00ff;stroke-width:5.55556"
     d="m 367.27817,453.35829 c -38.30263,-21.22952 -37.01918,-90.0489 2.01104,-107.83226 58.16494,-26.50172 111.68648,27.01982 85.18476,85.18476 -12.45931,27.3452 -57.57731,39.06377 -87.1958,22.6475 z"
     id="path7"
     transform="scale(0.03)" />
  <path
     style="fill:#00ff00;stroke-width:5.55556"
     d="m 390.38143,659.90725 c -3.15184,-3.92121 -12.35192,-20.31911 -20.44462,-36.43977 -12.74169,-25.38146 -18.82542,-31.12856 -45.38634,-42.87507 -16.86979,-7.46062 -37.41992,-18.87778 -45.66696,-25.37148 -13.38353,-10.53815 -19.32147,-11.40206 -55.26513,-8.0405 -50.66305,4.73815 -54.85248,-1.51044 -31.19549,-46.52854 15.87412,-30.20766 16.37884,-33.5397 15.75448,-104.00691 -0.62711,-70.77706 -1.12913,-73.65723 -18.07098,-103.67655 -22.62541,-40.09002 -17.30689,-45.98951 36.66601,-40.67116 33.19551,3.27101 39.58814,2.32041 52.45413,-7.79998 8.05838,-6.33871 28.32779,-17.5732 45.04313,-24.96551 27.07558,-11.97411 32.41032,-17.25826 48.89427,-48.43063 10.1765,-19.24452 22.25274,-34.99004 26.83607,-34.99004 4.58333,0 16.65957,15.74552 26.83607,34.99004 16.48395,31.17237 21.81869,36.45652 48.89427,48.43063 16.71534,7.39231 36.98475,18.6268 45.04313,24.96551 12.86599,10.12039 19.25862,11.07099 52.45413,7.79998 53.79499,-5.30082 58.69508,0.29257 35.96268,41.05091 -17.51768,31.40852 -17.64911,32.23109 -17.0985,107.01172 0.52952,71.91738 1.27257,76.63667 16.26602,103.30935 23.30939,41.46637 18.34792,48.21763 -31.97618,43.51118 -35.94366,-3.36156 -41.8816,-2.49765 -55.26513,8.0405 -8.24704,6.4937 -28.67081,17.85498 -45.38615,25.24729 -26.95416,11.92041 -32.48424,17.36073 -48.89427,48.10065 -19.49288,36.51483 -27.063,43.02252 -36.45464,31.33838 z M 454.34511,524.71844 C 503.97538,504.01828 533.08931,457.90638 533.08931,400 533.08931,319.87319 479.98016,266.66667 400,266.66667 c -79.35596,0 -132.93521,53.14146 -133.21132,132.12288 -0.1999,57.17831 26.62786,101.60189 74.87799,123.98906 27.7252,12.86398 84.15762,13.8355 112.67844,1.93983 z"
     id="path8"
     transform="scale(0.03)" />
</svg>
